Coordinates
version=1
nRows=25
nColumns=23
inDegrees=yes

Units are S.I. units (second, meters, Newtons, ...)
If the header above contains a line with 'inDegrees', this indicates whether rotational values are in degrees (yes) or radians (no).

endheader
time	pelvis_tilt	pelvis_list	pelvis_rotation	pelvis_tx	pelvis_ty	pelvis_tz	hip_flexion_r	hip_adduction_r	hip_rotation_r	knee_angle_r	knee_angle_r_beta	ankle_angle_r	subtalar_angle_r	mtp_angle_r	hip_flexion_l	hip_adduction_l	hip_rotation_l	knee_angle_l	knee_angle_l_beta	ankle_angle_l	subtalar_angle_l	mtp_angle_l
     22.50000000	     -5.36782861	      0.93606441	      4.17019688	      2.13763435	      0.97578724	      0.98988799	    -20.55561346	     -0.55299221	    -16.80402370	     28.59102260	      0.49900748	    -24.51968232	    -12.80692163	      0.00000000	     35.45634207	      3.96540514	      0.97078338	     28.42342450	      0.49608234	      5.78810262	     -3.07126241	      0.00000000
     22.50666667	     -5.32938679	      1.20247520	      4.23738205	      2.13851807	      0.97559669	      0.98855980	    -20.25474581	     -1.28713370	    -16.43984938	     31.86782148	      0.55619841	    -24.47932865	    -14.62796281	      0.00000000	     34.22226202	      4.57629166	      1.15708877	     24.09226799	      0.42048940	      6.90550996	     -0.83963764	      0.00000000
     22.51333333	     -5.32239248	      1.35065170	      4.44219376	      2.13912913	      0.97477686	      0.98714696	    -19.68714120	     -1.75674926	    -15.81449197	     35.51687237	      0.61988636	    -23.95401486	    -16.52916299	      0.00000000	     33.13880636	      5.16059522	      1.64355958	     20.38275797	      0.35574624	      7.88986775	      1.10438210	      0.00000000
     22.52000000	     -5.28123897	      1.50601223	      4.64057913	      2.13941332	      0.97348014	      0.98596795	    -18.90065360	     -2.17944927	    -15.05850611	     39.56620310	      0.69056052	    -23.27839834	    -18.40261592	      0.00000000	     32.16046747	      5.69736224	      2.06199843	     17.35201171	      0.30284974	      8.60845238	      2.57694347	      0.00000000
     22.52666667	     -5.21862936	      1.76209821	      4.82915159	      2.13939210	      0.97175492	      0.98497357	    -17.90896439	     -2.68952022	    -14.32959711	     43.96854608	      0.76739590	    -22.55514884	    -20.10237234	      0.00000000	     31.30122774	      6.29680335	      2.35410118	     15.03805670	      0.26246360	      8.95886253	      3.35191452	      0.00000000
     22.53333333	     -5.11231158	      2.11782141	      5.15496588	      2.13915762	      0.96970518	      0.98397780	    -16.83914882	     -3.24641291	    -13.83361259	     48.52471731	      0.84691609	    -21.98785207	    -21.69022116	      0.00000000	     30.57878778	      7.01317866	      2.44000905	     13.53833859	      0.23628858	      8.97761466	      3.74613785	      0.00000000
     22.54000000	     -4.94047634	      2.62676879	      5.60118458	      2.13869551	      0.96737998	      0.98299727	    -15.73564404	     -3.95182502	    -13.60822959	     53.19699510	      0.92846272	    -21.59328824	    -23.10097226	      0.00000000	     29.96408229	      7.89781172	      2.30909787	     12.85728351	      0.22440193	      8.68358030	      3.65729019	      0.00000000
     22.54666667	     -4.86187524	      3.29032296	      6.11191387	      2.13803511	      0.96460914	      0.98196410	    -14.44433676	     -4.91914613	    -13.67378255	     57.95133185	      1.01144155	    -21.36544110	    -24.09401737	      0.00000000	     29.61232079	      8.94570697	      1.91461523	     12.94880492	      0.22599928	      7.90545323	      2.85748581	      0.00000000
     22.55333333	     -4.75328684	      4.05904625	      6.81232760	      2.13720160	      0.96151493	      0.98086171	    -13.16447141	     -5.98577399	    -13.98625662	     62.65337033	      1.09350760	    -21.14891036	    -24.89679014	      0.00000000	     29.39678716	     10.14359886	      1.46331122	     13.85397331	      0.24179745	      6.84861729	      1.63154142	      0.00000000
     22.56000000	     -4.68065447	      4.81120540	      7.66534584	      2.13619119	      0.95811151	      0.97963635	    -11.81998020	     -7.12615698	    -14.55541541	     67.24232933	      1.17360004	    -21.00427393	    -25.49896212	      0.00000000	     29.37200479	     11.33377814	      0.94765813	     15.51154509	      0.27072753	      5.58307371	     -0.09366130	      0.00000000
     22.56666667	     -4.53935897	      5.61731799	      8.61267430	      2.13508763	      0.95449912	      0.97839127	    -10.55543868	     -8.33274678	    -15.18789943	     71.64924224	      1.25051518	    -20.98226266	    -26.09443101	      0.00000000	     29.38268164	     12.53603349	      0.37588130	     17.85683113	      0.31166050	      4.37300462	     -1.90165765	      0.00000000
     22.57333333	     -4.53843390	      6.28416754	      9.64497464	      2.13377384	      0.95040186	      0.97714036	     -9.05738939	     -9.46920809	    -15.83881104	     75.92821628	      1.32519737	    -20.81636703	    -26.47055888	      0.00000000	     29.63252721	     13.61425759	      0.06329757	     20.78105343	      0.36269780	      3.28825011	     -4.12049212	      0.00000000
     22.58000000	     -4.53760565	      6.83835873	     10.74361260	      2.13234595	      0.94611512	      0.97593271	     -7.50971253	    -10.53276069	    -16.48552663	     79.97819358	      1.39588281	    -20.56148879	    -26.81441337	      0.00000000	     29.87758340	     14.58374297	      0.05657405	     24.09337691	      0.42050876	      2.69478122	     -6.27339541	      0.00000000
     22.58666667	     -4.60151830	      7.24227612	     11.80924248	      2.13074307	      0.94162020	      0.97474201	     -5.75773253	    -11.52860260	    -16.99238799	     83.83315865	      1.46316464	    -20.16575783	    -26.99800709	      0.00000000	     30.14659530	     15.44301441	      0.44509114	     27.62266292	      0.48210642	      2.64159137	     -8.53999281	      0.00000000
     22.59333333	     -4.74872749	      7.50320149	     12.83530552	      2.12904319	      0.93700927	      0.97367273	     -3.77880165	    -12.46874319	    -17.36995328	     87.45902736	      1.52644799	    -19.62982454	    -27.07275230	      0.00000000	     30.38617237	     16.20800290	      1.17904139	     31.18764987	      0.54432718	      3.25851319	    -10.60787747	      0.00000000
     22.60000000	     -4.87259792	      7.60647553	     13.83849045	      2.12729868	      0.93256732	      0.97259885	     -1.69578732	    -13.29951700	    -17.63323416	     90.77071207	      1.58424779	    -19.00514721	    -27.01664821	      0.00000000	     30.44881211	     16.86358279	      2.21504759	     34.68837963	      0.60542644	      4.64322038	    -12.19845039	      0.00000000
     22.60666667	     -5.01441375	      7.62723791	     14.62482912	      2.12553342	      0.92835693	      0.97177449	      0.62454842	    -14.11721229	    -17.58605224	     93.81255484	      1.63733796	    -18.30599109	    -26.84460565	      0.00000000	     30.29906483	     17.37211067	      3.32098183	     37.86811421	      0.66092327	      6.44088647	    -13.48633652	      0.00000000
     22.61333333	     -5.33013286	      7.61927546	     15.14304743	      2.12374738	      0.92426620	      0.97127841	      3.39430648	    -15.00272055	    -17.13831477	     96.62021251	      1.68634083	    -17.47026851	    -26.47382443	      0.00000000	     30.08474509	     17.75336654	      4.31160274	     40.62382148	      0.70901944	      8.44523687	    -14.51492134	      0.00000000
     22.62000000	     -5.50594630	      7.47670435	     15.57025104	      2.12213417	      0.92089307	      0.97090286	      6.15340837	    -15.70964430	    -16.58528801	     98.97420501	      1.72742575	    -16.63368661	    -25.95490739	      0.00000000	     29.43031452	     17.90604970	      5.40295090	     42.94355641	      0.74950645	     10.76880728	    -14.99133083	      0.00000000
     22.62666667	     -5.62311179	      7.31371688	     15.74190774	      2.12061888	      0.91821279	      0.97089235	      9.06534330	    -16.34701316	    -15.74164181	    100.95296476	      1.76196162	    -15.75730693	    -25.29742460	      0.00000000	     28.40740818	     17.83943058	      6.35537274	     44.70486316	      0.78024705	     13.11168916	    -15.15510596	      0.00000000
     22.63333333	     -5.73318907	      7.16591587	     15.64566389	      2.11938651	      0.91610371	      0.97124758	     12.14023645	    -16.89250867	    -14.59071919	    102.51650016	      1.78925047	    -14.86069453	    -24.47054057	      0.00000000	     27.10541162	     17.55590070	      7.02271823	     45.96007605	      0.80215465	     15.37138761	    -15.06048249	      0.00000000
     22.64000000	     -5.68965286	      7.00656363	     15.34150823	      2.11845601	      0.91491754	      0.97193454	     15.14295283	    -17.25966210	    -13.29452943	    103.58790991	      1.80795009	    -14.02325539	    -23.67653296	      0.00000000	     25.33206442	     17.06167777	      7.57243608	     46.64429176	      0.81409647	     17.41062003	    -14.83990304	      0.00000000
     22.64666667	     -5.41827001	      6.71414521	     15.19575529	      2.11793092	      0.91498389	      0.97231889	     17.72431897	    -17.37952043	    -12.34301689	    103.98664150	      1.81490927	    -13.58361979	    -23.37900221	      0.00000000	     22.91464518	     16.50841648	      8.65905471	     46.68965523	      0.81488821	     18.78494386	    -14.75933590	      0.00000000
     22.65333333	     -5.54996869	      6.58533313	     14.24420961	      2.11747520	      0.91452317	      0.97392318	     21.20189597	    -17.44205460	    -10.47504818	    104.32406572	      1.82079844	    -12.28951165	    -21.97519768	      0.00000000	     21.02688302	     15.56186593	      8.13913739	     46.58875034	      0.81312709	     20.57248507	    -13.94563234	      0.00000000
     22.66000000	     -5.37691781	      6.28664003	     13.50434604	      2.11746551	      0.91535911	      0.97512930	     24.03255073	    -17.16409342	     -9.10729428	    103.95280273	      1.81431867	    -11.44743123	    -21.27778695	      0.00000000	     18.47779874	     14.60664393	      8.26670623	     45.94925283	      0.80196575	     21.55987136	    -13.67331537	      0.00000000
